<svg xmlns="http://www.w3.org/2000/svg" width="506" height="526" viewBox="0 0 506 526"><g transform="translate(-708 -3728)"><rect width="506" height="526" transform="translate(708 3728)" fill="#fafbff"/><ellipse cx="140.968" cy="140.969" rx="140.968" ry="140.969" transform="matrix(1, -0.017, 0.017, 1, 801.349, 3839.067)" fill="#e8edfe"/><ellipse cx="79.919" cy="79.919" rx="79.919" ry="79.919" transform="matrix(1, -0.017, 0.017, 1, 994.128, 3816.829)" fill="#f4f6fe"/><g transform="translate(-495.416 4250.258)"><g transform="translate(1265.259 -406.553)"><g transform="translate(152.159 136.143)"><rect width="154.647" height="9.868" transform="translate(9.868 0) rotate(90)" fill="#000042"/></g><g transform="translate(137.782 287.77)"><rect width="38.623" height="3.02" transform="translate(38.623 3.02) rotate(180)" fill="#000042"/></g><g transform="translate(47.669 78.548)"><path d="M1414.639-158.143a.5.5,0,0,1-.441-.262l-10.091-18.717a.505.505,0,0,1,.2-.68.51.51,0,0,1,.68.2l10.09,18.717a.5.5,0,0,1-.2.679A.521.521,0,0,1,1414.639-158.143Z" transform="translate(-1404.048 177.858)" fill="#000042"/></g><g transform="translate(0 184.308)"><g transform="translate(5.708 0)"><rect width="45.717" height="9.639" transform="translate(45.717 9.639) rotate(180)" fill="#000042"/></g><g transform="translate(0 6.266)"><path d="M1274.589,148.308l-9.33,100.217h3.3l12.251-99.735Z" transform="translate(-1265.259 -148.308)" fill="#000042"/><g transform="translate(41.583)"><path d="M1392.548,148.308l9.33,100.217h-3.3l-12.251-99.735Z" transform="translate(-1386.328 -148.308)" fill="#000042"/></g></g><g transform="translate(5.163 75.252)"><rect width="46.807" height="4.228" fill="#000042"/></g></g><g transform="translate(143.935 68.983)"><path d="M1684.329-143.249l1.177-2.591h29.187l24.134-59.867,3.719,1.343-23.895,61.116Z" transform="translate(-1684.329 205.708)" fill="#0b42f5"/></g><g transform="translate(9.556)"><g transform="translate(7.782 145.254)"><path d="M1363.365,19.434s71.12,26.327,73.9,29.9-12.091,63.237-14.5,68.072-2.615,18.334-3.512,22.073a12.6,12.6,0,0,1-4.123,6.231l-17.632-4L1410.38,70.8s-81.42-12.407-88.019-15.5c-10.031-4.7-5.682-26.319-5.682-26.319l39.971-12.621Z" transform="translate(-1315.74 -16.357)" fill="#1a1e2a"/></g><g transform="translate(27.572 9.582)"><path d="M1408.557-374.346c1.5,11.26-1.105,32.874-4.07,35.933-3.049,3.146-11.223-.948-11.223-.948l-3.722,18.838-16.184-5.655,8.389-52.478Z" transform="translate(-1373.359 378.656)" fill="#f1d7a4"/><g transform="translate(10.899 35.252)"><path d="M1413.641-269.658l.458-2.318c-4.509-1.752-9.005-4.043-9.005-4.043A59.033,59.033,0,0,0,1413.641-269.658Z" transform="translate(-1405.093 276.019)" fill="#000042"/></g></g><g transform="translate(0 51.71)"><path d="M1336.315-254.087c18.472,10.8,18.472,97.528,18.472,97.528s-14.682-3.729-30.026,8.189c-14.271,11.085-31.679,8.991-31.679,8.991S1303.218-273.439,1336.315-254.087Z" transform="translate(-1293.082 255.998)" fill="#ff5e00"/></g><g transform="translate(112.758 178.23)"><path d="M1637.932,112.37c4.125,2.227,3.625,59.067,6.921,62.766s1.392,6.9.489,11.5,5.2,15.967.986,19.311l-17.495.762-7.454-56.022Z" transform="translate(-1621.38 -112.37)" fill="#1a1e2a"/></g><g transform="translate(120.212 271.811)"><path d="M1643.082,385.6l2.73,18.217h31.112c-3.484-4.754-14.354-7.786-14.354-7.786l-1.993-11.193Z" transform="translate(-1643.082 -384.833)" fill="#000042"/></g><g transform="translate(85.212 270.603)"><path d="M1545.507,381.317l-4.327,20.187h32.108s-.5-6.113-12.651-7.058l2.5-9.126Z" transform="translate(-1541.181 -381.317)" fill="#000042"/></g><g transform="translate(117.739 183.215)"><path d="M1636.381,181.206a.5.5,0,0,1-.488-.605c3.073-14.285,11.06-51.688,11.06-53.215a.5.5,0,0,1,.5-.5h0a.5.5,0,0,1,.5.5c.012,1.859-9.946,48.162-11.083,53.434A.5.5,0,0,1,1636.381,181.206Z" transform="translate(-1635.881 -126.882)" fill="#000042"/></g><g transform="translate(104.168 276.073)"><path d="M1596.87,405.4a.494.494,0,0,1-.359-.152.5.5,0,0,1-.063-.617c.773-1.214,4.737-7.279,6.85-7.381a1.007,1.007,0,0,1,.98.445,1.329,1.329,0,0,1,.242,1.089c-.434,2.336-6.682,6.119-7.392,6.545A.511.511,0,0,1,1596.87,405.4Zm6.495-7.154h-.016c-.917.047-2.991,2.507-4.717,4.936,2.269-1.539,4.705-3.5,4.909-4.581a.313.313,0,0,0-.051-.289A.134.134,0,0,0,1603.364,398.248Z" transform="translate(-1596.37 -397.243)" fill="#000042"/></g><g transform="translate(139.167 271.114)"><path d="M1698.805,395.191a.57.57,0,0,1-.109-.012.5.5,0,0,1-.39-.469c-.039-.984-.324-9.688,1.812-11.52a1.57,1.57,0,0,1,1.324-.363,1.457,1.457,0,0,1,1.066.832c1.2,2.476-2.8,10.368-3.257,11.262A.5.5,0,0,1,1698.805,395.191Zm2.327-11.391a.538.538,0,0,0-.363.148c-1.1.941-1.476,5.194-1.5,8.642,1.461-3.179,2.945-7.236,2.336-8.5a.464.464,0,0,0-.364-.281A.555.555,0,0,0,1701.132,383.8Z" transform="translate(-1698.271 -382.802)" fill="#000042"/></g><g transform="translate(139.201 276.393)"><path d="M1698.869,405.283a.5.5,0,0,1-.394-.808c1.011-1.281,6.205-7.611,8.794-6.057a1.07,1.07,0,0,1,.594,1.016c-.125,1.929-6.764,4.936-8.794,5.811A.515.515,0,0,1,1698.869,405.283Zm7.435-6.119c-1.3,0-3.667,2.078-5.623,4.249,3.545-1.691,6.267-3.444,6.181-4.054h0a.333.333,0,0,0-.1-.082A.884.884,0,0,0,1706.3,399.164Z" transform="translate(-1698.37 -398.174)" fill="#000042"/></g><g transform="translate(24.553)"><path d="M1413.847-396.521a5.407,5.407,0,0,0-3.994-2.312c-2.835-.121-5.92,1.936-5.92,1.936l-16.667-7.091c-4.338-1.845-9.447-4.027-13.974-1.231-2.255,1.393-3.651,4.394-2.571,6.814-2.29.6-4.943,3.4-5.649,5.664a15.792,15.792,0,0,0-.21,7.041c1.021,6.784,3.34,14.052,5.838,21.857,0,0,4.373-3.949,5.916-5.555s7.114-2.437,7.114-2.437a14.7,14.7,0,0,1-4.047-4.356c-.914-1.775-.981-4.147.383-5.605a4.9,4.9,0,0,1,5.336-.834,12.326,12.326,0,0,1,4.426,3.572c1.878,2.146.831,3.822,1.159,6.654a14.757,14.757,0,0,0,2.653-8.907c5.493.329,10.888-2.086,15.54-5.025a13.343,13.343,0,0,0,4.593-4.229A5.593,5.593,0,0,0,1413.847-396.521Z" transform="translate(-1364.569 406.553)" fill="#000042"/></g></g><g transform="translate(45.099 53.442)"><path d="M1404.256-250.664c7.084,1.692,21.2,25.713,28.758,39.154l-24.066,9.667S1384.544-255.371,1404.256-250.664Z" transform="translate(-1396.565 250.957)" fill="#ff8000"/></g><g transform="translate(60.602 94.352)"><path d="M1524.917-100.705c-2.068-.145-14.95,3.367-14.95,3.367l-34.381-9.405L1459-131.844l-17.3,6.95,22.9,30.139h67.859S1526.985-100.559,1524.917-100.705Z" transform="translate(-1441.702 131.844)" fill="#f1d7a4"/></g><g transform="translate(79.847 130.711)"><rect width="154.492" height="10.366" transform="translate(154.492 10.366) rotate(180)" fill="#000042"/></g><g transform="translate(38.466 56.948)"><path d="M1394.208-196.677a.5.5,0,0,1-.445-.27c-.609-1.187-14.941-29.074-16.284-33.935-1.418-5.131,4.307-9.579,4.549-9.767a.508.508,0,0,1,.7.093.5.5,0,0,1-.094.7c-.055.039-5.432,4.225-4.2,8.7,1.32,4.76,16.066,33.451,16.214,33.74a.507.507,0,0,1-.215.676A.536.536,0,0,1,1394.208-196.677Z" transform="translate(-1377.253 240.749)" fill="#000042"/></g><g transform="translate(56.982 94.972)"><path d="M1431.665-121.958a.5.5,0,0,1-.465-.312.505.505,0,0,1,.277-.652l17.636-7.084a.5.5,0,0,1,.652.277.506.506,0,0,1-.278.652l-17.635,7.084A.532.532,0,0,1,1431.665-121.958Z" transform="translate(-1431.165 130.04)" fill="#000042"/></g><g transform="translate(60.102 100.8)"><path d="M1463.652-81.93a.489.489,0,0,1-.4-.2l-22.9-30.14a.5.5,0,0,1,.1-.7.494.494,0,0,1,.7.1l22.9,30.14a.5.5,0,0,1-.1.7A.482.482,0,0,1,1463.652-81.93Z" transform="translate(-1440.248 113.07)" fill="#000042"/></g></g><g transform="translate(1425.215 -386.796)"><g transform="translate(0 0)"><g transform="translate(143.859 8.299)"><path d="M2154.666-296.7c-1.016,7.628-4.777,14.815-4.84,22.568a10.088,10.088,0,0,0,1.332,5.647c3.266,4.983,11,5.3,16.243,5.975,5.974.768,12.115.922,17.95-.571s11.369-4.77,14.713-9.779c4.317-6.467,4.462-15.065,1.976-22.433s-4.563-7.878-9.7-13.714a59.921,59.921,0,0,0-12.434-11.313c-4.743-3.019-10.351-4.934-15.955-4.486-4.078.326-13.953,3.792-13.729,9.192.056,1.354,1.6,3.047,2.182,4.266a28.424,28.424,0,0,1,1.745,4.716A24.716,24.716,0,0,1,2154.666-296.7Z" transform="translate(-2149.826 324.865)" fill="#000042"/></g><g transform="translate(110.057 50.939)"><path d="M2051.91-171.251a.282.282,0,0,1-.059,0,.5.5,0,0,1-.437-.554l3.39-28.464a.483.483,0,0,1,.223-.359.477.477,0,0,1,.422-.059l9.853,3.062a.5.5,0,0,1,.328.625.5.5,0,0,1-.625.328l-9.279-2.882-3.319,27.867A.5.5,0,0,1,2051.91-171.251Z" transform="translate(-2051.41 200.717)" fill="#000042"/></g><g transform="translate(99.346 61.47)"><path d="M2020.226-170.057h19.75s-8.086,46.522-7.512,47.1,5.6,2.662,5.6,2.662h-15.931s5.028-2.088,5.6-2.662S2020.226-170.057,2020.226-170.057Z" transform="translate(-2020.226 170.057)" fill="#0b42f5"/></g><g transform="translate(182.427 169.548)"><g transform="translate(5.708 0)"><rect width="45.717" height="9.639" transform="translate(45.717 9.639) rotate(180)" fill="#000042"/></g><g transform="translate(0 6.266)"><path d="M2271.448,162.86l-9.331,100.217h3.3l12.251-99.735Z" transform="translate(-2262.117 -162.86)" fill="#000042"/><g transform="translate(41.583)"><path d="M2389.407,162.86l9.331,100.217h-3.3l-12.251-99.735Z" transform="translate(-2383.188 -162.86)" fill="#000042"/></g></g><g transform="translate(5.163 75.252)"><rect width="46.807" height="4.228" fill="#000042"/></g></g><g transform="translate(49.932 154.781)"><path d="M1883.547,205.549c1.525-.036,135.726-85.242,135.726-85.242L1994.5,101.623s-74.569,52.238-84.606,57.823-12.84-.574-16.6,7.314-1.651,13.41-8.581,12.219-8.353,9.869-8.353,9.869Z" transform="translate(-1876.354 -101.623)" fill="#2b2c3e"/></g><g transform="translate(10.029 242.005)"><path d="M1800.078,355.578l-16.212,12.194s-22.008-9.548-23.626-8.638,27.637,29.849,27.637,29.849l19.394-16.7Z" transform="translate(-1760.176 -355.578)" fill="#000042"/></g><g transform="translate(27.062 232.293)"><path d="M1816.343,351.768l-.41-.953c-.859-1.98-8.291-19.436-5.569-22.849a1.857,1.857,0,0,1,1.921-.621c2.249.418,3.444,8.252,4.05,14.84.468-4.878,1.425-10.278,3.382-11.657a1.915,1.915,0,0,1,1.8-.258,2.218,2.218,0,0,1,1.367,1.367c1.757,4.475-5.733,18.616-6.053,19.213Zm4.507-20.615a.948.948,0,0,0-.558.191c-2.312,1.632-3.144,11.465-3.347,17.1,2.4-4.854,6.151-13.527,5.01-16.437a1.26,1.26,0,0,0-.766-.789A.972.972,0,0,0,1820.849,331.153ZM1811.8,328.3a.757.757,0,0,0-.652.289c-1.585,1.988,1.586,11.762,4.608,19.209-.562-9.763-1.984-19.159-3.647-19.467A1.563,1.563,0,0,0,1811.8,328.3Z" transform="translate(-1809.768 -327.301)" fill="#000042"/></g><g transform="translate(117.271 248.876)"><path d="M2092.622,395.3l-.938-.441c-1.948-.921-19.057-9.119-19.268-13.48a1.862,1.862,0,0,1,1.035-1.734c1.964-1.183,8.029,3.913,12.84,8.466-2.871-3.971-5.718-8.658-5.159-10.985a1.914,1.914,0,0,1,1.183-1.379,2.206,2.206,0,0,1,1.929.121c4.276,2.2,7.986,17.76,8.142,18.424Zm-18.308-14.879a.683.683,0,0,0-.347.082c-.516.308-.562.621-.554.828.125,2.539,8.962,7.783,16.147,11.38C2083.132,386.2,2076.348,380.425,2074.314,380.425Zm8.822-3.839a1.122,1.122,0,0,0-.445.09.923.923,0,0,0-.586.687c-.66,2.749,5.21,10.681,8.771,15.047-1.4-5.229-4.307-14.219-7.088-15.648A1.411,1.411,0,0,0,2083.136,376.586Z" transform="translate(-2072.414 -375.582)" fill="#000042"/></g><g transform="translate(108.257 130.511)"><path d="M2124.492,36.013s-75.3,29.312-78,33.46,12.155,42.274,17.44,48.817c2.863,3.544-3.019,8.594-.241,13.142,6.77,11.081,1.505,10.985,6.93,16.759l17.285-5.353L2081,82.274s60.417-8.781,77.515-11.989,8.634-39.326,8.634-39.326Z" transform="translate(-2046.171 -30.959)" fill="#2b2c3e"/></g><g transform="translate(117.871 242.39)"><path d="M2110.821,390.291l-4.535-33.593L2089,362.051l2.5,17.958c-5.125,1.75-17.343,10.282-17.343,10.282Z" transform="translate(-2074.161 -356.698)" fill="#000042"/></g><g transform="translate(140.199 8.58)"><path d="M2139.205-316.837c1.158,9.541,11.936,28.983,15.013,30.86,3.166,1.93,8.992-3.157,8.992-3.157l4.3,8.81,12.056-8.065-15.262-35.374S2138.07-326.192,2139.205-316.837Z" transform="translate(-2139.169 324.047)" fill="#f1d7a4"/></g><g transform="translate(136.622)"><path d="M2179.461-298.945c4.9,2.872.879,11.789,5.656,14.618,5.144,3.046,11.765-2.972,15.1-6.357,4.726-4.79,7.66-11.112,5.428-17.878-1.918-5.812-7.2-8.579-12.609-10.644-9.159-3.5-17.07-7.991-22.918-16.119-2.208-3.07-3.318-6.445-6.3-8.725a24.944,24.944,0,0,0-12.243-4.877c-8.829-.956-22.654,4.949-22.824,15.352-.052,3.173,1.33,6.6,4.188,7.978,4.514,2.178,8.53,1.021,11.962-2.631.3,2.523.971,11.969,15.8,14.388C2172.731-312.451,2168.705-305.246,2179.461-298.945Z" transform="translate(-2128.756 349.028)" fill="#000042"/></g><g transform="translate(164.24 38.27)"><path d="M2210.032-230.579l-.867-1.8c3.322-2.392,6.518-5.222,6.518-5.222A49.928,49.928,0,0,1,2210.032-230.579Z" transform="translate(-2209.165 237.603)" fill="#1d71d3"/></g><g transform="translate(158.526 42.797)"><path d="M2220.582-131.655s-8.056-27.679-11.284-33.418-15.869-5.5-16.7-16c-.558-7.016,2.646-20.914,4.832-29.356a18.628,18.628,0,0,1,7.839-10.914h0a18.624,18.624,0,0,1,24.015,2.969c6.437,7.116,14.08,17.112,18.71,28.471,9.176,22.51,15.249,53.192,15.249,53.192Z" transform="translate(-2192.529 224.422)" fill="#f70f47"/></g><g transform="translate(59.913 272.859)"><rect width="39.942" height="2.551" transform="translate(0 0)" fill="#000042"/></g><g transform="translate(140.883 143.8)"><path d="M2145.449,126.467a.5.5,0,0,1-.5-.429l-3.788-26.723a.5.5,0,0,1,.238-.5l48.818-29.093a.5.5,0,0,1,.516.859L2142.2,99.5l3.741,26.395a.5.5,0,0,1-.426.566A.437.437,0,0,1,2145.449,126.467Z" transform="translate(-2141.16 -69.651)" fill="#000042"/></g><g transform="translate(115.023 195.23)"><path d="M2076.866,242.5a.5.5,0,0,1-.453-.285l-10.5-22.111a.5.5,0,1,1,.906-.43l10.5,22.111a.5.5,0,0,1-.238.668A.531.531,0,0,1,2076.866,242.5Z" transform="translate(-2065.869 -219.391)" fill="#000042"/></g><g transform="translate(180.1 143.801)"><path d="M2255.841,76.378a.472.472,0,0,1-.238-.062.5.5,0,0,1-.2-.676l3.121-5.725a.5.5,0,0,1,.875.476l-3.12,5.725A.5.5,0,0,1,2255.841,76.378Z" transform="translate(-2255.343 -69.654)" fill="#000042"/></g><g transform="translate(74.781 116.056)"><rect width="159.355" height="10.205" transform="translate(10.205 0) rotate(90)" fill="#000042"/></g><g transform="translate(0 110.953)"><rect width="159.767" height="10.205" transform="translate(0 0)" fill="#000042"/></g><g transform="translate(129.685 48.712)"><path d="M2140.154-201.667l-29.729,41.718a10.036,10.036,0,0,0,5.2,15.411h7.663l37.308-40.547a13.187,13.187,0,0,0-.282-18.155h0A13.187,13.187,0,0,0,2140.154-201.667Z" transform="translate(-2108.556 207.202)" fill="#cf0e3d"/></g></g><g transform="translate(162.838 65.719)"><path d="M2205.584-132.093a.494.494,0,0,1-.344-.137.5.5,0,0,1-.02-.707c.156-.164,15.785-16.843,22.794-24.587a.5.5,0,0,1,.707-.035.5.5,0,0,1,.035.706c-7.018,7.752-22.65,24.435-22.809,24.6A.508.508,0,0,1,2205.584-132.093Z" transform="translate(-2205.084 157.686)" fill="#fcfff8"/></g></g></g></g></svg>