<svg xmlns="http://www.w3.org/2000/svg" xmlns:xlink="http://www.w3.org/1999/xlink" width="22" height="12" viewBox="0 0 22 12"><defs><clipPath id="a"><rect width="22" height="12" fill="#fff" opacity="0.6"/></clipPath></defs><g clip-path="url(#a)"><g transform="translate(4.813)"><path d="M8.96,0H3.415A3.368,3.368,0,0,0,0,3.312V8.688A3.368,3.368,0,0,0,3.415,12H8.96a3.368,3.368,0,0,0,3.415-3.312V3.312A3.368,3.368,0,0,0,8.96,0Zm2.317,8.688A2.285,2.285,0,0,1,8.96,10.935H3.415A2.285,2.285,0,0,1,1.1,8.688V3.312A2.285,2.285,0,0,1,3.415,1.065H8.96a2.285,2.285,0,0,1,2.317,2.247V8.688Z" fill="#fff"/><path d="M264.9,261.724a3.093,3.093,0,1,0,3.189,3.092A3.145,3.145,0,0,0,264.9,261.724Zm0,5.119a2.028,2.028,0,1,1,2.091-2.027A2.062,2.062,0,0,1,264.9,266.843Z" transform="translate(-258.713 -258.816)" fill="#fff"/><path d="M760.5,180.473a.821.821,0,0,0-.569.229.763.763,0,0,0,0,1.1.823.823,0,0,0,1.138,0,.765.765,0,0,0,0-1.1A.822.822,0,0,0,760.5,180.473Z" transform="translate(-750.985 -178.467)" fill="#fff"/></g></g></svg>