<svg xmlns="http://www.w3.org/2000/svg" width="14" height="12" viewBox="0 0 14 12"><g transform="translate(0 0)"><path d="M14,58.861a5.5,5.5,0,0,1-1.649.477,3.02,3.02,0,0,0,1.262-1.676,5.61,5.61,0,0,1-1.825.736,2.8,2.8,0,0,0-2.1-.957,2.955,2.955,0,0,0-2.872,3.03,3.2,3.2,0,0,0,.074.691A8.021,8.021,0,0,1,.976,57.995a3.136,3.136,0,0,0-.388,1.523A3.076,3.076,0,0,0,1.865,62.04a2.759,2.759,0,0,1-1.3-.38V61.7a3,3,0,0,0,2.3,2.972,2.766,2.766,0,0,1-.757.106,2.618,2.618,0,0,1-.541-.056,2.9,2.9,0,0,0,2.682,2.1,5.574,5.574,0,0,1-3.567,1.3A5.789,5.789,0,0,1,0,68.077a7.813,7.813,0,0,0,4.4,1.363c5.283,0,8.171-4.618,8.171-8.622l-.01-.392A5.919,5.919,0,0,0,14,58.861Z" transform="translate(-0.001 -57.441)" fill="#fff"/></g></svg>